<svg width="72" height="61" viewBox="0 0 72 61" fill="none" xmlns="http://www.w3.org/2000/svg">
<g id="Flat Tyre">
<path id="Vector" d="M43.1428 30.1382L43.5561 27.7988L48.2349 28.6253L47.8216 30.9647L43.1428 30.1382Z" fill="white"/>
<path id="Vector_2" d="M59.8912 48.6625L61.1084 48.2196L60.2962 45.9883L59.0837 46.43C58.8623 46.0405 58.6047 45.6727 58.3142 45.3316L59.1455 44.3424L57.3239 42.8129L56.4926 43.8056C56.1073 43.5789 55.7013 43.3892 55.2802 43.2392L55.5046 41.9638L53.1664 41.5518L52.942 42.8248C52.4939 42.8225 52.0467 42.8623 51.606 42.9435L51.1655 41.7311L48.9342 42.5421L49.3735 43.7534C49.1796 43.8626 48.99 43.9814 48.8047 44.1096C48.6207 44.2391 48.4687 44.3994 48.2989 44.5431L47.2883 43.694L45.7612 45.5121L46.7599 46.3516C46.5333 46.7364 46.344 47.142 46.1946 47.5629L44.9062 47.3337L44.4929 49.6731L45.7695 49.8975C45.767 50.3448 45.8067 50.7913 45.8882 51.2311L44.6722 51.674L45.4833 53.9053L46.6957 53.4636C46.9178 53.853 47.1754 54.2211 47.4652 54.5632L46.634 55.5512L48.452 57.0783L49.2833 56.0856C49.6686 56.3123 50.0746 56.502 50.4957 56.652L50.2713 57.9274L52.6095 58.3383L52.841 57.0629C52.8624 57.0629 52.8838 57.0688 52.9052 57.0688C53.3317 57.0647 53.7569 57.0222 54.1758 56.9418L54.6187 58.1589L56.85 57.3479L56.4035 56.12C56.5959 56.0096 56.793 55.9074 56.9783 55.778C57.1635 55.6486 57.3144 55.4894 57.4842 55.3458L58.4959 56.1948L60.0219 54.3756L59.0232 53.536C59.249 53.1522 59.4378 52.7478 59.5872 52.3283L60.8709 52.5551L61.2842 50.2158L60.0088 49.9913C60.0121 49.5456 59.9727 49.1007 59.8912 48.6625V48.6625ZM52.885 45.195C53.1637 45.1956 53.4418 45.2202 53.7162 45.2686C54.9136 45.4826 55.9823 46.1503 56.6997 47.1326C57.417 48.115 57.7276 49.3363 57.5668 50.542C57.406 51.7477 56.7862 52.8448 55.8365 53.6049C54.8869 54.365 53.6805 54.7293 52.4689 54.622C51.2573 54.5146 50.1338 53.944 49.3325 53.0288C48.5312 52.1137 48.1138 50.9247 48.1675 49.7095C48.2211 48.4943 48.7416 47.3466 49.6204 46.5056C50.4992 45.6646 51.6686 45.1952 52.885 45.195Z" fill="white"/>
<path id="Vector_3" d="M51.5383 50.9087L51.9516 48.5693L54.2909 48.9826L53.8777 51.3219L51.5383 50.9087Z" fill="white"/>
<path id="Vector_4" d="M69.6063 30.0435C68.9826 29.1472 68.1872 28.3835 67.2663 27.7966C66.3453 27.2098 65.3171 26.8115 64.2412 26.6247L60.1883 25.9122L52.8626 9.21597C52.4706 8.32046 51.8632 7.5358 51.0945 6.93185C50.3259 6.3279 49.4198 5.92341 48.457 5.75441L18.2137 0.418969C16.6634 0.14788 15.0688 0.50252 13.7795 1.40515C12.4902 2.30779 11.6114 3.68477 11.3357 5.23428L6.18195 34.4753C6.1006 34.936 6.1108 35.4083 6.21197 35.8651C6.31314 36.3219 6.5033 36.7543 6.77159 37.1376C7.03988 37.5209 7.38105 37.8476 7.77561 38.099C8.17017 38.3505 8.61039 38.5217 9.07114 38.603L10.0532 38.7752C10.2806 38.8151 10.5148 38.7878 10.727 38.6967C10.9391 38.6056 11.1201 38.4546 11.2478 38.2622C12.397 36.53 14.0266 35.1708 15.9369 34.3512C17.8473 33.5317 19.9552 33.2874 22.0024 33.6483C24.0495 34.0092 25.9468 34.9597 27.4617 36.3832C28.9765 37.8067 30.043 39.6413 30.5305 41.662C30.5848 41.8869 30.7037 42.091 30.8725 42.2492C31.0413 42.4074 31.2526 42.5129 31.4805 42.5527L35.6925 43.296L32.5373 50.6585C32.474 50.8064 32.4413 50.9656 32.4413 51.1264C32.4413 51.2873 32.474 51.4464 32.5373 51.5943L35.3873 58.2502H30.0626V60.6252H44.3126V58.2502H38.9878L41.8378 51.5931C41.9012 51.4453 41.9339 51.2861 41.9339 51.1252C41.9339 50.9644 41.9012 50.8052 41.8378 50.6573L38.9273 43.8672L42.795 44.5488C43.0225 44.5902 43.2571 44.5635 43.4695 44.4723C43.682 44.3811 43.8629 44.2293 43.9896 44.0358C45.1385 42.3035 46.768 40.9442 48.6783 40.1245C50.5886 39.3049 52.6965 39.0606 54.7437 39.4215C56.7908 39.7825 58.688 40.733 60.2028 42.1566C61.7175 43.5802 62.7838 45.4149 63.271 47.4357C63.3252 47.6607 63.444 47.8651 63.6128 48.0235C63.7816 48.1819 63.993 48.2876 64.221 48.3275L65.2031 48.5008C65.4078 48.5362 65.6152 48.554 65.823 48.5543C66.6602 48.5539 67.4706 48.2586 68.1118 47.7203C68.7531 47.182 69.1842 46.435 69.3296 45.6105L70.9791 36.2553C71.1725 35.1806 71.1508 34.0782 70.9152 33.0119C70.6795 31.9456 70.2347 30.9367 69.6063 30.0435V30.0435ZM35.4253 49.9377L37.1876 45.8278L38.9498 49.9377H35.4253ZM38.9498 52.3127L37.1876 56.4227L35.4253 52.3127H38.9498ZM50.6859 10.1707L57.3751 25.4147L42.0183 22.7072L44.6985 7.50716L48.0437 8.10091C48.6206 8.20136 49.1637 8.44291 49.6247 8.80403C50.0857 9.16515 50.4502 9.63464 50.6859 10.1707V10.1707ZM13.6751 5.65109C13.7562 5.19024 13.9274 4.74988 14.1788 4.35519C14.4302 3.9605 14.7569 3.6192 15.1402 3.35079C15.5235 3.08238 15.9559 2.89211 16.4128 2.79087C16.8697 2.68962 17.342 2.67938 17.8028 2.76072L42.3627 7.09153L39.6813 22.2951L11.6124 17.3456L13.6751 5.65109ZM10.375 24.3625L11.5447 24.5692L11.1338 26.9073L9.96295 26.7007L10.375 24.3625ZM9.72427 36.3064L9.48677 36.2637C9.17757 36.2072 8.90305 36.0312 8.7226 35.7739C8.54214 35.5165 8.47027 35.1985 8.52252 34.8885L8.72914 33.7188L11.7133 34.2437C10.9762 34.8557 10.3091 35.5475 9.72427 36.3064V36.3064ZM22.4151 31.3082C20.6616 31.0005 18.8638 31.0546 17.132 31.4673C15.4003 31.8801 13.7712 32.6426 12.3451 33.7082L12.6467 31.9982L9.13764 31.3795L9.55089 29.0401L10.7194 29.2467C10.8575 29.2703 10.9973 29.2822 11.1374 29.2823C11.6951 29.2813 12.2346 29.0841 12.6615 28.7252C13.0883 28.3663 13.3753 27.8686 13.472 27.3194L13.8829 24.9824C13.9373 24.6753 13.9306 24.3604 13.8633 24.0559C13.7959 23.7513 13.6693 23.463 13.4905 23.2074C13.3118 22.9518 13.0845 22.7339 12.8215 22.5662C12.5585 22.3984 12.2651 22.2841 11.958 22.2298L10.7871 22.0232L11.2003 19.685L39.2681 24.6345L36.3813 41.0065L32.63 40.3439C31.9248 38.043 30.5978 35.9816 28.7953 34.3872C26.9928 32.7927 24.7848 31.7272 22.4151 31.3082V31.3082ZM55.1604 37.0818C52.7899 36.6637 50.3498 36.9092 48.1101 37.7913C45.8704 38.6734 43.9183 40.1577 42.4696 42.08L38.7195 41.4186L41.6063 25.0465L63.8268 28.9653C64.5952 29.0987 65.3296 29.3831 65.9873 29.8022C66.6451 30.2213 67.2132 30.7667 67.6588 31.4068C67.8097 31.6367 67.9446 31.8768 68.0626 32.1252L64.582 31.5113C63.9628 31.4021 63.3255 31.5429 62.81 31.9029C62.2944 32.2628 61.9426 32.8125 61.8318 33.4315L61.4185 35.7697C61.3091 36.3899 61.4506 37.0283 61.8118 37.5443C62.173 38.0603 62.7244 38.4116 63.3446 38.5211L68.0234 39.3523L67.6113 41.6905L64.1035 41.0718L63.8018 42.7818C62.8266 41.2923 61.5569 40.0182 60.0707 39.0379C58.5846 38.0577 56.9135 37.392 55.1604 37.0818V37.0818ZM68.6421 35.8421L68.4366 37.0118L63.7579 36.1805L64.1711 33.8423L68.73 34.6463C68.7406 35.0468 68.7111 35.4474 68.6421 35.8421V35.8421ZM65.6163 46.1615L65.3788 46.1187C65.0905 45.2076 64.7018 44.3314 64.2198 43.5062L67.204 44.0323L66.9986 45.2008C66.9712 45.3548 66.9138 45.5019 66.8294 45.6336C66.7451 45.7653 66.6355 45.8791 66.5071 45.9683C66.3786 46.0576 66.2338 46.1206 66.081 46.1538C65.9281 46.1869 65.7702 46.1895 65.6163 46.1615V46.1615Z" fill="white"/>
<path id="Vector_5" d="M18.1875 48.75H3.9375C2.99267 48.75 2.08653 49.1253 1.41843 49.7934C0.750334 50.4615 0.375 51.3677 0.375 52.3125V57.0625C0.375 58.0073 0.750334 58.9135 1.41843 59.5816C2.08653 60.2497 2.99267 60.625 3.9375 60.625H18.1875C19.1323 60.625 20.0385 60.2497 20.7066 59.5816C21.3747 58.9135 21.75 58.0073 21.75 57.0625V52.3125C21.75 51.3677 21.3747 50.4615 20.7066 49.7934C20.0385 49.1253 19.1323 48.75 18.1875 48.75ZM15.7412 54.8252L14.8863 58.25H12.5825L13.4019 54.9761C13.471 54.7011 13.4394 54.4104 13.3128 54.1567L11.7964 51.125H13.8911L15.7412 54.8252ZM8.56875 54.1567L7.04638 51.125H9.14112L10.9912 54.8252L10.1363 58.25H7.8325L8.65188 54.9761C8.7228 54.7018 8.69332 54.4112 8.56875 54.1567V54.1567ZM2.75 57.0625V52.3125C2.75 51.9976 2.87511 51.6955 3.09781 51.4728C3.32051 51.2501 3.62256 51.125 3.9375 51.125H4.39112L6.24125 54.8252L5.38625 58.25H3.9375C3.62256 58.25 3.32051 58.1249 3.09781 57.9022C2.87511 57.6795 2.75 57.3774 2.75 57.0625ZM19.375 57.0625C19.375 57.3774 19.2499 57.6795 19.0272 57.9022C18.8045 58.1249 18.5024 58.25 18.1875 58.25H17.3325L18.1519 54.9761C18.221 54.7011 18.1894 54.4104 18.0628 54.1567L16.5464 51.125H18.1875C18.5024 51.125 18.8045 51.2501 19.0272 51.4728C19.2499 51.6955 19.375 51.9976 19.375 52.3125V57.0625Z" fill="white"/>
<path id="Vector_6" d="M8.6875 41.625H11.0625V46.375H8.6875V41.625Z" fill="white"/>
<path id="Vector_7" d="M13.4709 46.1152L14.6607 41.3661L16.9633 41.9429L15.7735 46.6921L13.4709 46.1152Z" fill="white"/>
<path id="Vector_8" d="M2.81055 41.9023L5.11315 41.3255L6.30289 46.0747L4.00029 46.6515L2.81055 41.9023Z" fill="white"/>
</g>
</svg>
